<svg xmlns="http://www.w3.org/2000/svg" width="183.005" height="137.079" viewBox="0 0 183.005 137.079"><path d="M372.118,351.247a83.064,83.064,0,0,1,10.616.317q2.218.316,2.536-.871a9.55,9.55,0,0,0,.317-2.457V303.691a6.272,6.272,0,0,1,3.837-.99,14.372,14.372,0,0,1,3.209.47,8.781,8.781,0,0,1,3.835,2.191q3.911,3.6,6.809,6.809a77.992,77.992,0,0,1,5.321,6.574,76.347,76.347,0,0,1,4.618,7.278q2.19,3.914,4.852,9.078a9.191,9.191,0,0,1,1.252,4.618,4.508,4.508,0,0,1-1.252,2.9,5.686,5.686,0,0,1-2.9,1.486,28.479,28.479,0,0,1-3.522.548,1.82,1.82,0,0,0-1.644.861,2.825,2.825,0,0,0-.47,1.8,3.43,3.43,0,0,0,.626,1.722,1.724,1.724,0,0,0,1.487.783q3.13,0,5.634-.157t4.931-.391q2.425-.234,4.931-.47t5.478-.235q2.971,0,5.634.235t5.243.47q2.584.235,5.4.391t6.261.157a1.54,1.54,0,0,0,1.409-.783,3.392,3.392,0,0,0,0-3.444,1.937,1.937,0,0,0-1.409-.938q-6.573-.625-10.487-3.522a28.33,28.33,0,0,1-7.2-8.373q-3.446-5.635-7.279-11.348t-7.9-11.035q-4.072-5.32-8.139-9.861t-7.826-7.983a8.874,8.874,0,0,1-1.957-2.269q-.549-1.016.7-2.27,2.972-2.971,6.183-6.808t6.417-7.826q3.207-3.992,6.262-8.061l5.87-7.826q2.032-2.5,3.522-4.148a12.836,12.836,0,0,1,3.131-2.582,15.305,15.305,0,0,1,3.756-1.487,35.586,35.586,0,0,1,5.243-.861,1.626,1.626,0,0,0,1.174-.939,3.987,3.987,0,0,0,0-3.444,1.258,1.258,0,0,0-1.174-.783,50.759,50.759,0,0,0-8.139.548,45.873,45.873,0,0,1-7.512.548,70.972,70.972,0,0,1-9-.548,78.3,78.3,0,0,0-9.782-.548,1.539,1.539,0,0,0-1.408.783,3.288,3.288,0,0,0-.47,1.722,2.925,2.925,0,0,0,.548,1.722,2.279,2.279,0,0,0,1.644.939,47.2,47.2,0,0,1,4.93.783,5.629,5.629,0,0,1,3.131,1.644,3.868,3.868,0,0,1,.783,3.131,15.271,15.271,0,0,1-2.113,5.243,146.143,146.143,0,0,1-11.661,16.356A247.264,247.264,0,0,1,388.328,295.5a5.94,5.94,0,0,1-2.741,1.831v-26.1h-.016a2.18,2.18,0,0,0-1.252-2.149l-90.159-35.81a43.132,43.132,0,0,1-6.734-3.169,20.3,20.3,0,0,1-4.2-3.248,10.337,10.337,0,0,1-2.3-3.644,30.646,30.646,0,0,1-1.188-4.358l-.317-2.376a1.8,1.8,0,0,0-1.03-1.506,3.58,3.58,0,0,0-1.822-.317,3.468,3.468,0,0,0-1.743.633,1.617,1.617,0,0,0-.792,1.347,50.382,50.382,0,0,0,.635,8.24,48.373,48.373,0,0,1,.633,7.923,73.609,73.609,0,0,1-.633,9.349,69.266,69.266,0,0,0-.635,8.715,1.665,1.665,0,0,0,.872,1.584,3.728,3.728,0,0,0,3.645,0,1.664,1.664,0,0,0,.871-1.584,31.834,31.834,0,0,1,.635-4.595,19.217,19.217,0,0,1,1.267-3.961,7.078,7.078,0,0,1,2.139-2.774,5.43,5.43,0,0,1,3.407-1.03,12.588,12.588,0,0,1,3.644.792l18.7,7.13a6.255,6.255,0,0,1,2.456,1.743,5.4,5.4,0,0,1,.713,3.169v27.888a12.41,12.41,0,0,1-.554,4.357,4.262,4.262,0,0,1-2.615,2.139q-6.024,2.378-9.9,3.8t-6.338,2.218a29.248,29.248,0,0,1-3.882,1.03,15.658,15.658,0,0,1-2.536.238q-3.962,0-5.228-2.535a25.316,25.316,0,0,1-1.9-7.923,2.154,2.154,0,0,0-.871-1.584,2.927,2.927,0,0,0-1.664-.476,3.59,3.59,0,0,0-1.981.554,1.844,1.844,0,0,0-.872,1.664,105.217,105.217,0,0,0,.635,11.25,117.262,117.262,0,0,1,.633,12.518,79.419,79.419,0,0,1-.633,10.537,72.724,72.724,0,0,0-.635,9.744,1.273,1.273,0,0,0,.792,1.188,3.861,3.861,0,0,0,1.743.4,4.377,4.377,0,0,0,1.822-.4,1.709,1.709,0,0,0,1.03-1.347q.476-2.221.951-4.12a11.276,11.276,0,0,1,1.743-3.724,15.744,15.744,0,0,1,3.8-3.645,36.138,36.138,0,0,1,7.13-3.723q10.457-4.279,22.262-9.032c7.04-2.836,11.408-4.587,15.092-6.057-.071,7-.242,20-.514,22.065a14.413,14.413,0,0,1-2.06,6.337,7.258,7.258,0,0,1-4.357,2.852,55.127,55.127,0,0,1-7.447,1.188,1.717,1.717,0,0,0-1.347.951,4.708,4.708,0,0,0-.476,1.743,3.2,3.2,0,0,0,.317,1.743,1.265,1.265,0,0,0,1.188.792,79.38,79.38,0,0,0,9.428-.474,71.338,71.338,0,0,1,8.635-.476q2.853,0,4.991.158t4.119.317q1.98.154,3.961.317t4.516.158a1.558,1.558,0,0,0,1.426-.792,3.437,3.437,0,0,0,0-3.486,1.95,1.95,0,0,0-1.426-.951,49.336,49.336,0,0,1-6.972-1.188,7.925,7.925,0,0,1-4.357-2.852,13.623,13.623,0,0,1-2.3-6.337c-.358-2.366-.562-19.187-.617-24.736l1.964-.78q11.962-4.753,23.53-9.269l16.21-6.331c.073,10.03.111,37.789.111,40.085v9.507a85.5,85.5,0,0,1-.634,8.952,9.74,9.74,0,0,1-2.3,5.388,12.008,12.008,0,0,1-5.308,3.09,80.734,80.734,0,0,1-9.665,2.218,1.637,1.637,0,0,0-1.188,1.03,3.591,3.591,0,0,0-.317,1.822,4.078,4.078,0,0,0,.476,1.664,1.17,1.17,0,0,0,1.03.713Q366.1,351.4,372.118,351.247ZM321.889,281.6q-1.9.79-2.615,0a4.647,4.647,0,0,1-.713-3.012v-25.51a3.361,3.361,0,0,1,.634-2.377q.631-.635,2.693.158l37.078,14.419a1.41,1.41,0,0,1,0,2.535Z" transform="translate(-274.036 -214.643)" fill="#59606e"/></svg>